<svg width="100" height="100" viewBox="0 0 33 33" fill="none" xmlns="http://www.w3.org/2000/svg">
<g style="mix-blend-mode:multiply" opacity="0.45">
<path d="M14.6143 18.713V24.9631C14.618 24.9257 14.6218 24.8883 14.6218 24.8472V18.7204C14.6218 18.7204 14.618 18.7204 14.6143 18.7167V18.713ZM12.5826 14.9263C12.5826 15.1057 12.5901 15.2814 12.6013 15.4533V14.9263H12.5826Z" fill="url(#paint0_linear_401_872)"/>
<path d="M16.6609 0C16.4626 0 16.2643 0.0112143 16.0772 0.033643C16.2194 0.0299049 16.3578 0.0261667 16.5 0.0261667C16.818 0.0261667 17.1398 0.0373811 17.4503 0.0560716C17.2034 0.0186905 16.9378 0 16.6609 0Z" fill="url(#paint1_linear_401_872)"/>
<path d="M17.4503 0.0560279C17.1398 0.0373374 16.818 0.026123 16.5 0.026123C16.3578 0.026123 16.2194 0.0298612 16.0772 0.0335993C11.6248 0.149481 7.60272 2.02975 4.69932 5.00528C1.79218 7.97707 0 12.0404 0 16.5112C0 25.6022 7.40068 33 16.5 33C25.5993 33 33 25.6022 33 16.5112C33 7.4201 26.1082 0.549458 17.4503 0.0560279ZM1.78844 16.5112C1.78844 9.62184 6.5551 3.8203 12.9718 2.24282C12.7136 2.85213 12.5827 3.58106 12.5827 4.39597V14.9225H8.68776V8.17893C8.68776 7.62569 8.23878 7.17712 7.68503 7.17712C7.13129 7.17712 6.67857 7.62569 6.67857 8.17893V24.8434C6.67857 25.4004 7.12755 25.8452 7.68503 25.8452C8.24252 25.8452 8.68776 25.4004 8.68776 24.8434V16.7766H12.6014V27.5722C12.6014 29.0488 13.0204 30.2188 13.8323 30.9664C6.98912 29.7104 1.78844 23.7033 1.78844 16.5074V16.5112ZM18.5354 27.2358C18.5354 29.217 17.8432 30.0132 16.5748 30.0132C15.3065 30.0132 14.6143 29.217 14.6143 27.2358V18.7129C14.6143 18.7129 14.618 18.7167 14.6218 18.7167C15.1755 18.9671 15.8378 19.0905 16.6085 19.0905C17.3793 19.0905 17.9966 18.9484 18.5354 18.6755V27.2358ZM19.351 30.9365C20.1405 30.1889 20.5446 29.0301 20.5446 27.576V25.7966H22.6735C25.3187 25.7966 26.6432 23.8416 26.6432 20.1371C26.6432 17.6251 26.1119 16.3317 24.9221 15.5094C25.9286 14.8701 26.3252 13.5768 26.3252 11.6479C26.3252 8.70974 24.8959 7.22572 22.3816 7.22572H20.1816C19.2126 7.22572 18.7262 7.56962 18.6027 8.3621H17.252C16.6384 8.3621 16.2344 8.81815 16.2344 9.3527C16.2344 9.88725 16.6384 10.3433 17.252 10.3433H18.6476V14.3431C18.6476 14.7318 18.6214 15.0757 18.5653 15.3785C18.5578 15.4383 18.5466 15.4981 18.5354 15.5542C18.2884 16.657 17.6524 17.1504 16.6085 17.1504C15.2391 17.1504 14.6218 16.4028 14.6218 14.5524V4.74735C14.6218 2.84092 15.3214 1.93256 16.6646 1.93256C18.0864 1.93256 18.5391 2.81475 18.5391 4.45204C18.5391 5.1249 18.9956 5.49497 19.5344 5.49497C20.0731 5.49497 20.5259 5.12116 20.5259 4.50437V4.13056C20.5259 3.43901 20.4323 2.82596 20.249 2.29515C26.5497 3.95487 31.2116 9.70034 31.2116 16.5112C31.2116 23.322 26.1007 29.6095 19.3473 30.9365H19.351ZM22.2245 16.4887C23.8408 16.4887 24.6303 17.4906 24.6303 20.0287C24.6303 22.5669 24.1551 23.9463 22.2769 23.9463H20.5296V16.4887H22.2245ZM20.5296 14.6384V9.08355H22.2245C23.7847 9.08355 24.3684 10.0891 24.3684 11.8049C24.3684 13.6553 23.7024 14.6346 22.0898 14.6346H20.5296V14.6384Z" fill="url(#paint2_linear_401_872)"/>
</g>
<defs>
<linearGradient id="paint0_linear_401_872" x1="12.5595" y1="19.7014" x2="14.6287" y2="19.7014" gradientUnits="userSpaceOnUse">
<stop stop-color="#9FD2B1"/>
<stop offset="1" stop-color="#083761"/>
</linearGradient>
<linearGradient id="paint1_linear_401_872" x1="16.0616" y1="0.0266766" x2="17.455" y2="0.0266764" gradientUnits="userSpaceOnUse">
<stop stop-color="#9FD2B1"/>
<stop offset="1" stop-color="#083761"/>
</linearGradient>
<linearGradient id="paint2_linear_401_872" x1="-0.37415" y1="15.7137" x2="33.1122" y2="15.7137" gradientUnits="userSpaceOnUse">
<stop stop-color="#9FD2B1"/>
<stop offset="1" stop-color="#083761"/>
</linearGradient>
</defs>
</svg>
